<svg xmlns="http://www.w3.org/2000/svg" width="42.709" height="42.709" viewBox="0 0 32 32"><path fill="#4f7cac" d="M0 0h32v32H0z"/><rect x="3.4" y="2.6" width="25.1" height="17.1" rx="1.1" fill="#fff" opacity=".9"/><g fill="#4f7cac"><path d="M6.9,4.3h18.3c.6,0,1.1.5,1.1,1.1h0c0,.6-.5,1.1-1.1,1.1H6.9c-.6,0-1.1-.5-1.1-1.1h0c0-.6.5-1.1,1.1-1.1Z" opacity=".9"/><path d="M6.9,7.7h14.9c.6,0,1.1.5,1.1,1.1h0c0,.6-.5,1.1-1.1,1.1H6.9c-.6,0-1.1-.5-1.1-1.1h0c0-.6.5-1.1,1.1-1.1Z" opacity=".8"/><path d="M6.9,11.2h12.6c.6,0,1.1.5,1.1,1.1h0c0,.6-.5,1.1-1.1,1.1H6.9c-.6,0-1.1-.5-1.1-1.1h0c0-.6.5-1.1,1.1-1.1Z" opacity=".7"/><use href="#B" opacity=".7"/><use href="#B" x="8" opacity=".4"/></g><path d="M3.8 30.7v-7.8h1v7.8h-1zm2.8 0v-7.8h3.5c.7 0 1.2 0 1.6.2s.7.4.9.7.3.7.3 1.2-.2 1-.5 1.4-.9.6-1.7.7c.3.1.5.3.6.4.3.3.6.6.9 1l1.4 2.1h-1.3l-1-1.6c-.3-.5-.6-.8-.7-1.1s-.4-.4-.5-.5-.3-.2-.5-.2H9 7.8v3.5h-1zm1.1-4.4h2.2c.5 0 .8 0 1.1-.1s.5-.3.6-.5.2-.4.2-.7c0-.4-.1-.7-.4-.9s-.7-.4-1.3-.4H7.6v2.6zm6.8 4.4v-7.8H18c.7 0 1.2 0 1.6.2s.7.4.9.7.3.7.3 1.2-.2 1-.5 1.4-.9.6-1.7.7c.3.1.5.3.6.4.3.3.6.6.9 1l1.4 2.1h-1.3l-1-1.6c-.3-.5-.6-.8-.7-1.1s-.4-.4-.5-.5-.3-.2-.5-.2h-.6-1.2v3.5h-1zm1-4.4h2.2c.5 0 .8 0 1.1-.1s.5-.3.6-.5.2-.4.2-.7c0-.4-.1-.7-.4-.9s-.7-.4-1.3-.4h-2.5v2.6zm6.9 4.4v-7.8H28v.9h-4.6v2.4h4.3v.9h-4.3v2.7h4.8v.9h-5.8z" fill="#fff"/><defs ><path id="B" d="M6.9,15.7h4.6c.6,0,1.1.5,1.1,1.1h0c0,.6-.5,1.1-1.1,1.1h-4.6c-.6,0-1.1-.5-1.1-1.1h0c0-.6.5-1.1,1.1-1.1Z"/></defs></svg>