<svg xmlns="http://www.w3.org/2000/svg" width="42.709" height="42.709" viewBox="0 0 32 32"><path fill="#6c9a8b" d="M0 0h32v32H0z"/><g fill="#fff"><rect x="4" y="3.3" width="24" height="5.3" rx="2.7" opacity=".9"/><rect x="6.7" y="12.7" width="18.7" height="5.3" rx="2.7" opacity=".9"/></g><path d="M16,8.7v4" stroke="#fff" stroke-width="2"/><path d="M6.9 27.2l.9.2c-.2.8-.6 1.4-1.1 1.8s-1.1.6-1.9.6-1.4-.2-1.9-.5-.9-.8-1.1-1.4c-.3-.6-.4-1.2-.4-1.9s.1-1.4.4-2A3.04 3.04 0 0 1 3 22.7c.5-.3 1.1-.4 1.7-.4s1.3.2 1.8.5c.5.4.8.9 1 1.5l-.9.2c-.2-.5-.4-.9-.7-1.1s-.7-.4-1.2-.4-1 .1-1.4.4-.6.6-.8 1.1c-.2.4-.2.9-.2 1.4s0 1.1.3 1.6c.2.5.5.8.8 1s.8.3 1.2.3 1-.2 1.3-.5c.4-.3.6-.8.7-1.4zM9 29.7v-7.2h.9v2.9h3.7v-2.9h.9v7.2h-.9v-3.4H9.9v3.4H9zm7.4 0v-7.2h.9v7.2h-.9zm2.6 0v-7.2h.9v6.3h3.5v.8h-4.5zm5.6 0v-7.2h2.5c.6 0 1 0 1.3.1.4 0 .8.3 1.1.5.4.3.7.7.8 1.2.2.5.3 1.1.3 1.7s0 1-.2 1.4c-.1.4-.3.8-.5 1-.2.3-.4.5-.7.7-.2.2-.5.3-.9.4s-.7.1-1.2.1h-2.6zm.9-.9H27c.5 0 .8 0 1.1-.1s.5-.2.6-.4c.2-.2.4-.5.5-.9s.2-.8.2-1.4-.1-1.3-.4-1.7c-.2-.4-.5-.7-.9-.8-.3 0-.7-.1-1.2-.1h-1.5v5.5z" fill="#fff"/></svg>