<?xml version="1.0" encoding="UTF-8"?>
<svg width="1200" height="1200" xmlns="http://www.w3.org/2000/svg" version="1.1">
<path d="m-1,-3l1203,0l0,1203l-1203,0l0,-1203z" fill="#fb18a4"/>
<g fill="#FFFFFF">
<path d="m973.64363,212.51773l-525.86881,0c-11.07092,0 -16.60638,5.53546 -16.60638,16.60638l0,204.81206l309.98582,0l27.67731,-55.35461l-226.95391,0l0,-55.35461l110.70922,0l0,-55.35461l110.70922,0l0,55.35461l110.70922,0l0,55.35461l-44.28369,0l-66.42553,132.85107l0,44.28369l49.81915,49.81915l-38.74823,38.74823l-11.07092,-5.53546l0,127.31561l210.34752,0c5.53546,0 16.60638,-5.53546 16.60638,-16.60638l0,-520.33334c-5.53546,-11.07092 -11.07092,-16.60638 -16.60638,-16.60638zm0,0" opacity="0.5"/>
<path d="m475.45213,600.00001l-27.67731,110.70922l83.03192,0l-27.67731,-110.70922l-27.67731,0zm0,0"/>
<path d="m752.22519,433.93618l-525.86881,0c-11.07092,0 -16.60638,5.53546 -16.60638,16.60638l0,525.86881c0,5.53546 5.53546,11.07092 16.60638,11.07092l525.86881,0c5.53546,0 16.60638,-5.53546 16.60638,-16.60638l0,-520.33334c-5.53546,-11.07092 -11.07092,-16.60638 -16.60638,-16.60638zm-182.67022,442.83689l-27.67731,-110.70922l-110.70922,0l-27.67731,110.70922l-55.35461,0l83.03192,-332.12767l110.70922,0l83.03192,332.12767l-55.35461,0zm0,0"/>
</g>
</svg>
